<svg id="layer_1" data-name="layer 1" xmlns="http://www.w3.org/2000/svg" viewBox="0 0 163 125.68"><defs><style>.cls-1{fill:#00a5e7;}.cls-2{fill:#e60180;}.cls-3{fill:#263e94;}.cls-4{fill:#019e69;}.cls-5{fill:#fee902;}</style></defs><path class="cls-1" d="M359.2,347.74q-32.34,0-64.68,0a16.27,16.27,0,0,1-16.45-13.18,16.79,16.79,0,0,1-.33-3.39q0-37.21,0-74.44a16.5,16.5,0,0,1,13.91-16.52,21.42,21.42,0,0,1,3.4-.21c8.62,0,17.25-.05,25.87,0a3.94,3.94,0,0,0,4-2.35c1-2,1.94-4,2.76-6.1a14.36,14.36,0,0,1,13.88-9.46c11.88,0,23.76-.07,35.63,0,6.38,0,10.83,3.21,13.48,9,.95,2.07,1.85,4.16,2.8,6.23a4.31,4.31,0,0,0,4.42,2.72c8.67-.1,17.33-.05,26,0,9.83,0,16.81,7,16.82,16.88q0,37,0,73.95c0,10-6.84,16.89-16.86,16.91Q391.53,347.79,359.2,347.74Zm.13-5.86H423.4a14.88,14.88,0,0,0,2.91-.17c5.23-1,8.5-5.15,8.5-10.66,0-24.69,0-49.38.05-74.07a10.86,10.86,0,0,0-11.08-11.17c-8.58.2-17.17.07-25.75,0a14.62,14.62,0,0,1-3.85-.48c-3.4-1-5.32-3.57-6.71-6.63-1-2.06-1.72-4.22-2.76-6.24A7.89,7.89,0,0,0,377.2,228c-11.72,0-23.43.06-35.15,0-4.28,0-7.1,1.81-8.73,5.7-.89,2.13-1.79,4.27-2.79,6.36-1.91,4-5.12,5.88-9.57,5.85-8.75,0-17.5,0-26.24,0a10.59,10.59,0,0,0-11,10.85q0,37.1,0,74.19c0,6.57,4.48,11,11.06,11Z" transform="translate(-277.73 -222.07)"/><path class="cls-1" d="M295.27,237.22c0-1.31-.06-2.49,0-3.66a3.83,3.83,0,0,1,3.77-3.62q6.58-.09,13.17,0a3.82,3.82,0,0,1,3.84,3.92c0,1.09,0,2.18,0,3.35Z" transform="translate(-277.73 -222.07)"/><path class="cls-2" d="M378.45,289.76A323.11,323.11,0,0,0,355.2,247.7c2.2,0,4.12-.1,6,0a43.72,43.72,0,0,1,31.14,15.14,1.76,1.76,0,0,1,.28,2.33,246.3,246.3,0,0,1-13.45,23.45C379,289,378.8,289.24,378.45,289.76Z" transform="translate(-277.73 -222.07)"/><path class="cls-3" d="M395.6,267.21a42.33,42.33,0,0,1,6.74,17.1,44.82,44.82,0,0,1-1.89,21.88,1.59,1.59,0,0,1-1.72,1.27,216.85,216.85,0,0,1-25,0c-1-.07-2.09-.17-3.42-.29C380.37,294.81,388.4,281.4,395.6,267.21Z" transform="translate(-277.73 -222.07)"/><path d="M322.79,315.74c-.43-.61-.73-1-1-1.4-7-11.76-8.19-24.17-4.15-37.17a2.07,2.07,0,0,1,2.38-1.73c8.57.09,17.14.06,25.71.08.64,0,1.27.09,2.11.15A226.35,226.35,0,0,0,322.79,315.74Z" transform="translate(-277.73 -222.07)"/><path class="cls-4" d="M351.43,308.92c15.51,2.74,31,3,46.86,2.28-.25.51-.39.85-.58,1.17-7.08,12.26-17.66,19.52-31.53,22.1a1.19,1.19,0,0,1-1.51-.62q-6.51-12.18-13.06-24.35A4.18,4.18,0,0,1,351.43,308.92Z" transform="translate(-277.73 -222.07)"/><path class="cls-5" d="M361.4,335a44.62,44.62,0,0,1-12.26-1.19A43.76,43.76,0,0,1,326,320a1.68,1.68,0,0,1-.3-2.22,220.94,220.94,0,0,1,13.55-23.38c.09-.14.2-.26.42-.57C346.37,307.78,353.21,321.56,361.4,335Z" transform="translate(-277.73 -222.07)"/><path class="cls-1" d="M366.54,274.45c-15.36-3.32-30.82-3.24-46.43-2.66a5.53,5.53,0,0,1,.3-.86,44.06,44.06,0,0,1,29.79-22.31,1.66,1.66,0,0,1,2.16.88c4.66,8.15,9.37,16.26,14.06,24.39A2.31,2.31,0,0,1,366.54,274.45Z" transform="translate(-277.73 -222.07)"/><path class="cls-1" d="M425.82,259.46a5,5,0,0,1-5.13,4.92,5.06,5.06,0,0,1-4.85-5,5,5,0,1,1,10,.06Z" transform="translate(-277.73 -222.07)"/></svg>
